<svg width="66" height="66" viewBox="0 0 66 66" fill="none" xmlns="http://www.w3.org/2000/svg">
<rect x="0.412048" y="0.266968" width="65.489" height="65.5855" rx="18.1914" fill="#F3F6FF"/>
<path d="M29.5434 30.8855H30.8767C31.2303 30.8855 31.5695 30.7448 31.8195 30.4944C32.0696 30.244 32.2101 29.9043 32.2101 29.5502C32.2101 29.1961 32.0696 28.8564 31.8195 28.606C31.5695 28.3556 31.2303 28.2149 30.8767 28.2149H29.5434C29.1898 28.2149 28.8506 28.3556 28.6006 28.606C28.3505 28.8564 28.2101 29.1961 28.2101 29.5502C28.2101 29.9043 28.3505 30.244 28.6006 30.4944C28.8506 30.7448 29.1898 30.8855 29.5434 30.8855V30.8855ZM29.5434 33.5561C29.1898 33.5561 28.8506 33.6968 28.6006 33.9472C28.3505 34.1976 28.2101 34.5372 28.2101 34.8914C28.2101 35.2455 28.3505 35.5852 28.6006 35.8356C28.8506 36.086 29.1898 36.2267 29.5434 36.2267H37.5434C37.897 36.2267 38.2362 36.086 38.4862 35.8356C38.7362 35.5852 38.8767 35.2455 38.8767 34.8914C38.8767 34.5372 38.7362 34.1976 38.4862 33.9472C38.2362 33.6968 37.897 33.5561 37.5434 33.5561H29.5434ZM44.2101 29.4701C44.1962 29.3474 44.1694 29.2266 44.1301 29.1096V28.9894C44.0659 28.8521 43.9804 28.7259 43.8767 28.6155V28.6155L35.8767 20.6037C35.7665 20.4998 35.6405 20.4142 35.5034 20.35C35.4636 20.3443 35.4232 20.3443 35.3834 20.35C35.2479 20.2722 35.0984 20.2223 34.9434 20.2031H26.8767C25.8159 20.2031 24.7984 20.6252 24.0483 21.3764C23.2982 22.1277 22.8767 23.1466 22.8767 24.209V42.9032C22.8767 43.9656 23.2982 44.9845 24.0483 45.7358C24.7984 46.487 25.8159 46.9091 26.8767 46.9091H40.2101C41.2709 46.9091 42.2883 46.487 43.0385 45.7358C43.7886 44.9845 44.2101 43.9656 44.2101 42.9032V29.5502C44.2101 29.5502 44.2101 29.5502 44.2101 29.4701ZM36.2101 24.7565L39.6634 28.2149H37.5434C37.1898 28.2149 36.8506 28.0742 36.6006 27.8238C36.3505 27.5734 36.2101 27.2338 36.2101 26.8796V24.7565ZM41.5434 42.9032C41.5434 43.2573 41.4029 43.597 41.1529 43.8474C40.9028 44.0978 40.5637 44.2385 40.2101 44.2385H26.8767C26.5231 44.2385 26.184 44.0978 25.9339 43.8474C25.6839 43.597 25.5434 43.2573 25.5434 42.9032V24.209C25.5434 23.8549 25.6839 23.5152 25.9339 23.2648C26.184 23.0144 26.5231 22.8737 26.8767 22.8737H33.5434V26.8796C33.5434 27.942 33.9648 28.961 34.715 29.7122C35.4651 30.4635 36.4825 30.8855 37.5434 30.8855H41.5434V42.9032ZM37.5434 38.8973H29.5434C29.1898 38.8973 28.8506 39.038 28.6006 39.2884C28.3505 39.5388 28.2101 39.8784 28.2101 40.2326C28.2101 40.5867 28.3505 40.9264 28.6006 41.1768C28.8506 41.4272 29.1898 41.5679 29.5434 41.5679H37.5434C37.897 41.5679 38.2362 41.4272 38.4862 41.1768C38.7362 40.9264 38.8767 40.5867 38.8767 40.2326C38.8767 39.8784 38.7362 39.5388 38.4862 39.2884C38.2362 39.038 37.897 38.8973 37.5434 38.8973Z" fill="#7291FF"/>
</svg>
