<svg width="36" height="37" viewBox="0 0 36 37" fill="none" xmlns="http://www.w3.org/2000/svg">
<rect y="0.951416" width="36" height="36" rx="18" fill="white"/>
<path d="M9.00003 12.3712C9.00003 11.794 9.20274 11.3178 9.60814 10.9427C10.0135 10.5675 10.5406 10.3799 11.1892 10.3799C11.8263 10.3799 12.3417 10.5646 12.7356 10.934C13.141 11.3149 13.3437 11.8113 13.3437 12.4232C13.3437 12.9773 13.1468 13.439 12.7529 13.8085C12.3475 14.1894 11.8147 14.3799 11.1545 14.3799H11.1371C10.5 14.3799 9.98459 14.1894 9.59076 13.8085C9.19694 13.4275 9.00003 12.9484 9.00003 12.3712ZM9.2259 27.5227V15.9556H13.083V27.5227H9.2259ZM15.2201 27.5227H19.0773V21.0639C19.0773 20.6598 19.1236 20.3481 19.2162 20.1288C19.3784 19.7363 19.6245 19.4044 19.9547 19.1331C20.2848 18.8618 20.6989 18.7262 21.1969 18.7262C22.4942 18.7262 23.1429 19.5978 23.1429 21.3409V27.5227H27V20.8907C27 19.1822 26.5946 17.8864 25.7838 17.0033C24.973 16.1201 23.9016 15.6786 22.5695 15.6786C21.0753 15.6786 19.9112 16.3193 19.0773 17.6007V17.6353H19.0599L19.0773 17.6007V15.9556H15.2201C15.2433 16.325 15.2549 17.4737 15.2549 19.4015C15.2549 21.3294 15.2433 24.0364 15.2201 27.5227Z" fill="#3A3D43"/>
</svg>
