<svg width="36" height="37" viewBox="0 0 36 37" fill="none" xmlns="http://www.w3.org/2000/svg">
<rect y="0.951416" width="36" height="36" rx="18" fill="white"/>
<path d="M18.4386 25.9313L14.3764 25.8554C13.0612 25.829 11.7427 25.8818 10.4532 25.6077C8.49165 25.1982 8.35268 23.1903 8.20727 21.506C8.00691 19.1382 8.08448 16.7274 8.46258 14.3793C8.67604 13.0618 9.51607 12.2756 10.8152 12.1901C15.2005 11.8796 19.615 11.9164 23.9906 12.0612C24.4528 12.0745 24.9181 12.1471 25.3737 12.2297C27.6231 12.6326 27.6779 14.908 27.8237 16.8235C27.9691 18.7587 27.9077 20.7038 27.6298 22.6259C27.4068 24.2173 26.9802 25.5518 25.1798 25.6807C22.9241 25.8491 20.7201 25.9848 18.458 25.9416C18.4581 25.9313 18.4451 25.9313 18.4386 25.9313ZM16.0505 21.9024C17.7504 20.905 19.4178 19.9242 21.108 18.9334C19.4049 17.936 17.7406 16.9552 16.0505 15.9645V21.9024Z" fill="#3A3D43"/>
</svg>
