<svg width="66" height="66" viewBox="0 0 66 66" fill="none" xmlns="http://www.w3.org/2000/svg">
<rect x="0.498901" y="0.266968" width="65.489" height="65.5855" rx="18.1914" fill="#F8F1FF"/>
<path d="M46.5769 38.3364L40.5502 32.3142C40.6764 31.6991 40.7389 31.0727 40.7369 30.4448C40.7364 28.7231 40.3026 27.0293 39.4755 25.52C38.6484 24.0107 37.4547 22.7346 36.0048 21.8096C34.5548 20.8846 32.8955 20.3406 31.18 20.2278C29.4646 20.115 27.7484 20.4372 26.1902 21.1645C25.9928 21.2548 25.8204 21.392 25.6879 21.5642C25.5555 21.7364 25.467 21.9384 25.4302 22.1526C25.3936 22.3641 25.4084 22.5813 25.4733 22.7859C25.5383 22.9904 25.6516 23.1763 25.8036 23.3276L31.6036 29.1228L29.2036 31.5264L23.4169 25.7178C23.2645 25.568 23.0783 25.4571 22.8741 25.3943C22.6699 25.3316 22.4537 25.3189 22.2436 25.3573C22.031 25.3928 21.8302 25.4794 21.6584 25.6096C21.4865 25.7398 21.3488 25.9098 21.2569 26.1051C20.5283 27.6707 20.2069 29.3955 20.3226 31.1189C20.4384 32.8424 20.9875 34.5085 21.9189 35.9623C22.8503 37.4162 24.1338 38.6104 25.6499 39.4341C27.166 40.2577 28.8655 40.684 30.5902 40.6731C31.2172 40.6752 31.8427 40.6125 32.4569 40.4862L38.4702 46.5217C38.5942 46.6469 38.7416 46.7462 38.9041 46.814C39.0666 46.8818 39.2409 46.9167 39.4169 46.9167C39.5929 46.9167 39.7672 46.8818 39.9297 46.814C40.0921 46.7462 40.2396 46.6469 40.3636 46.5217C40.4885 46.3976 40.5877 46.2499 40.6554 46.0872C40.7231 45.9245 40.758 45.75 40.758 45.5737C40.758 45.3974 40.7231 45.2229 40.6554 45.0602C40.5877 44.8974 40.4885 44.7498 40.3636 44.6256L33.8302 38.0827C33.667 37.9203 33.4645 37.8029 33.2425 37.7421C33.0206 37.6812 32.7867 37.679 32.5636 37.7355C31.9198 37.9082 31.2567 37.9979 30.5902 38.0026C29.593 38.0114 28.6038 37.8225 27.6797 37.4468C26.7557 37.0711 25.915 36.516 25.2061 35.8135C24.4972 35.111 23.9341 34.2749 23.5492 33.3535C23.1643 32.4321 22.9653 31.4435 22.9636 30.4448C22.9618 29.9975 22.9975 29.5508 23.0702 29.1095L28.2969 34.3572C28.4208 34.4824 28.5683 34.5817 28.7308 34.6495C28.8933 34.7173 29.0675 34.7522 29.2436 34.7522C29.4196 34.7522 29.5939 34.7173 29.7563 34.6495C29.9188 34.5817 30.0663 34.4824 30.1902 34.3572L34.4302 30.0709C34.6705 29.8219 34.8049 29.4892 34.8049 29.1429C34.8049 28.7966 34.6705 28.4638 34.4302 28.2148L29.2436 22.9805C29.6843 22.9084 30.1303 22.8726 30.5769 22.8736C32.5796 22.8772 34.4991 23.6764 35.914 25.0959C37.3289 26.5154 38.1236 28.4391 38.1236 30.4448C38.1189 31.1122 38.0293 31.7763 37.8569 32.421C37.8005 32.6444 37.8027 32.8787 37.8635 33.101C37.9242 33.3233 38.0414 33.526 38.2036 33.6895L44.7369 40.2325C44.988 40.4839 45.3285 40.6252 45.6836 40.6252C46.0386 40.6252 46.3792 40.4839 46.6302 40.2325C46.8813 39.9811 47.0223 39.64 47.0223 39.2844C47.0223 38.9289 46.8813 38.5878 46.6302 38.3364H46.5769Z" fill="#A276FF"/>
</svg>
